<svg xmlns="http://www.w3.org/2000/svg" version="1.0" viewBox="0 0 1616 1616"><path d="M1025.6 409c-1.5.5-4.6 2.1-6.7 3.6s-5.2 4.7-6.8 7.1c-1.7 2.5-3.3 6.4-3.6 8.7-.4 2.2-.5 17.1-.3 33.1.3 25.5.5 29.4 2.1 32.2.9 1.8 3.3 4.8 5.2 6.8 2 1.9 5 4.3 6.8 5.2 2.2 1.2 5.5 1.8 10.7 1.8 5.4 0 8.5-.6 11-1.9 1.9-1 5.2-3.7 7.2-5.9 2.1-2.2 4.4-6.1 5.3-8.5 1.2-3.7 1.5-10 1.5-33.6-.1-21.4-.4-30.1-1.4-32.8-.7-2-2.8-5.5-4.6-7.8-1.8-2.2-5.1-5-7.3-6.2-2.4-1.2-6.6-2.2-10.2-2.4-3.3-.2-7.3.1-8.9.6m130.4 24.7c-1.4.2-4.5 1.1-7 2-3.7 1.3-9.5 6.6-32.7 29.6-22.1 22-28.7 29.2-30.3 32.9-1.3 2.9-2 6.8-2 10.5 0 3.6.8 7.5 2 10.2 1.1 2.4 3.4 5.7 5.1 7.4 1.7 1.6 4.9 3.7 7.2 4.8 2.6 1.1 6.5 1.9 10.3 1.9 4.5 0 7.2-.6 10.5-2.3 2.7-1.5 15.4-13.4 32.6-30.7 22.2-22.2 28.6-29.1 29.9-32.6 1.2-3.2 1.5-6.3 1.2-11.3-.4-5-1.1-7.8-2.9-10.2-1.3-1.9-3.5-4.5-4.9-5.7-1.4-1.3-4.3-3.2-6.5-4.2s-5.3-2-7-2.2c-1.6-.2-4.1-.3-5.5-.1m-232.5 26.5c-1.6.6-3.5 1.6-4.2 2.2s-2.7 2.3-4.3 3.8c-1.7 1.4-3.9 4.6-5 7-1.2 2.7-2 6.5-2 10.2 0 4 .7 7.4 2.1 10.3 1.3 2.6 8.2 10.4 18.1 20.2 12 12 17.1 16.4 20.4 17.7 3.2 1.2 6.3 1.5 11.4 1.2 5.4-.4 7.7-1.1 10.2-3.1 1.8-1.3 4.3-3.4 5.5-4.4 1.3-1.1 3.2-4 4.3-6.4 1.1-2.6 2-6.6 2-9.8 0-2.9-.5-7.2-1.2-9.5-.9-3.3-4.4-7.4-17.2-20.3-11.1-11.2-17.5-16.8-20.6-18.2-3-1.4-6.5-2-10.5-2-3.3 0-7.3.5-9 1.1m102.7 98.7c-1.8.5-4.9 2-7 3.5-2 1.4-18.1 17-35.7 34.6s-32.4 32-32.9 32-9.5-8.5-20.1-18.8c-16-15.8-20.2-19.4-25.7-22-3.7-1.8-9.9-3.7-14.2-4.4-5.9-.9-9.4-.9-15.3 0-4.7.7-10.4 2.5-14.3 4.4-5.4 2.6-9.8 6.5-25.4 21.9l-18.8 18.7-6.5-2.4c-3.5-1.3-11.5-4-17.7-5.8-6.2-1.9-17.9-4.8-26.2-6.5-8.2-1.7-22.3-3.8-31.4-4.7-12.2-1.2-21.4-1.5-35-1.1-10.2.4-23.7 1.3-30 2.2s-14.9 2.2-19 3-10.2 2-13.5 2.9c-3.3.8-10.6 2.8-16.3 4.5-5.7 1.8-14.9 4.9-20.5 7.1-5.6 2.1-15 6.1-20.8 8.8-5.9 2.8-15 7.6-20.4 10.7s-12.6 7.5-15.9 9.7c-3.4 2.3-10.4 7.3-15.6 11.1-5.2 3.9-13.5 10.7-18.5 15.2-4.9 4.6-13.4 12.7-18.7 18.1-5.3 5.5-12.2 13-15.3 16.9-3.1 3.8-9.3 12.3-13.8 18.8-4.5 6.4-10.6 15.9-13.5 21-3 5-7.8 14.4-10.9 20.7-3 6.3-7.5 16.7-9.9 23.1s-5.5 15.6-7 20.5c-1.4 4.9-3.2 11.6-4 14.9s-2.1 9.4-2.9 13.5-2.2 12.9-3.1 19.5c-1.3 8.9-1.8 18.6-1.8 37.5s.5 28.6 1.8 37.5c.9 6.6 2.3 15.4 3.1 19.5s2.1 10.2 2.9 13.5 2.6 10 4 14.9c1.5 4.9 4.6 14.1 7 20.5s6.9 16.8 9.9 23.1c3.1 6.3 7.9 15.7 10.9 20.7 2.9 5.1 9 14.6 13.5 21 4.5 6.5 10.7 14.9 13.8 18.8 3.1 3.8 10 11.4 15.3 16.9 5.3 5.4 13.8 13.5 18.7 18.1 5 4.5 13.3 11.3 18.5 15.2 5.2 3.8 12.2 8.8 15.6 11.1 3.3 2.2 10.5 6.6 15.9 9.7s14.5 7.9 20.4 10.7c5.8 2.7 14.7 6.5 19.6 8.5 5 1.9 14.2 5 20.5 7 6.3 1.9 14.2 4.2 17.5 5s9.4 2 13.5 2.8 12.9 2.2 19.5 3.1c8.9 1.3 18.6 1.8 37.5 1.8 18.7 0 28.7-.5 37.5-1.7 6.6-1 14.5-2.2 17.5-2.8 3-.5 8.7-1.7 12.5-2.5 3.9-.9 12.2-3.2 18.5-5.1 6.3-2 16-5.2 21.5-7.3s14.8-6.1 20.6-8.8c5.9-2.8 15-7.6 20.4-10.7s12.6-7.5 15.9-9.7c3.4-2.3 11.1-7.8 17.1-12.3 6.1-4.5 15.3-12.2 20.4-17.1 5.2-4.9 12.2-11.8 15.6-15.4s8.2-8.8 10.7-11.5c2.5-2.8 7.6-9.3 11.5-14.5 3.8-5.2 8.8-12.2 11.1-15.6 2.2-3.3 6.5-10.3 9.5-15.5 2.9-5.2 7.7-14.4 10.6-20.4 2.9-6.1 7.3-16.2 9.7-22.6s5.5-15.6 7-20.5c1.4-4.9 3.4-12.3 4.4-16.4s2.8-13.1 3.9-20 2.5-18.6 3.1-26c.5-7.4 1-18.5 1-24.6s-.7-18-1.5-26.5c-.9-8.5-2.7-21-4.1-27.9-1.3-6.9-3.6-16.7-5-21.9s-4.3-14.3-6.4-20.2l-3.8-10.7 18.8-18.8c15.7-15.9 19.2-19.9 21.8-25.4 1.7-3.6 3.6-9.6 4.3-13.4.6-3.9.9-9.6.5-13.1-.3-3.5-1.5-8.9-2.6-12.1-1.1-3.1-3.3-7.8-5-10.3-1.6-2.5-10.8-12.5-20.5-22.1-9.6-9.6-17.5-17.9-17.5-18.5 0-.5 15-16 33.4-34.5 18.3-18.4 34-34.9 34.9-36.5.8-1.7 1.8-4.9 2.2-7.2.3-2.3.3-6.2-.1-8.8-.4-2.7-2-6.6-3.9-9.3-1.7-2.6-5.2-5.9-7.6-7.4-3.1-2-6.2-2.9-10.4-3.2-3.3-.3-7.5-.1-9.3.3M719.4 711c2.7 1.4 6.1 4 7.7 6 1.6 1.9 3.6 5.6 4.5 8.3 1 3 1.5 6.8 1.2 9.7-.3 2.6-1.5 6.8-2.7 9.3-1.2 2.6-4.1 6.1-6.3 7.8-2.2 1.8-5.6 3.8-7.6 4.5s-6.6 1.3-10.2 1.4c-3.6 0-11.3.7-17.1 1.4-5.8.8-13.4 2.2-17 3.1-3.5.9-10.1 2.9-14.6 4.5s-11.5 4.6-15.5 6.6-11.6 6.5-16.8 10-10.8 7.5-12.5 8.9c-1.6 1.4-6.3 5.8-10.4 9.8-4 4-9.7 10.3-12.6 14.2-2.8 3.8-6.8 9.6-8.8 12.7-2 3.2-5.3 9-7.2 12.8-2 3.9-4.9 10.8-6.5 15.3s-3.6 11-4.5 14.4c-.8 3.5-2.2 10.9-3 16.5-.8 5.7-1.5 13.3-1.5 16.9s-.7 8.7-1.7 11.4c-1 3.1-3.3 6.5-6 9.2-3 2.8-6.2 4.8-9.6 5.8-2.8.8-6.5 1.5-8.2 1.5s-5.2-.7-7.6-1.5c-2.5-.9-6.1-2.8-8-4.4s-4.5-5-5.9-7.7c-1.3-2.8-2.6-7.3-2.8-10.4-.2-3 .1-11.3.7-18.3.6-7.1 2-17.4 3.2-23 1.1-5.6 3.6-14.7 5.4-20.2s4.7-13.4 6.5-17.5c1.7-4.1 5.3-11.7 8.1-16.8 2.7-5.1 7.5-13 10.6-17.5s8.5-11.6 11.9-15.7 10.2-11.3 15.1-16c4.8-4.7 10.8-10.1 13.3-12.1 2.5-1.9 8.2-6.1 12.8-9.2 4.5-3.2 12.5-8 17.6-10.7 5.1-2.8 12.6-6.4 16.7-8.1s12-4.6 17.5-6.4c5.6-1.8 14.8-4.3 20.5-5.4 5.7-1.2 14.2-2.5 18.9-3s12.8-.8 18-.8c7.9.2 10.3.6 14.4 2.7m405.2-150.5c-2.1.7-5.5 2.7-7.5 4.3s-4.7 5.1-6.1 7.8c-1.9 3.7-2.5 6.4-2.5 11.4 0 4.7.7 7.8 2.3 11.2 1.3 2.6 4.2 6.2 6.4 7.9 2.2 1.8 5.6 3.8 7.6 4.5 2.7 1 11.4 1.3 33.2 1.3s30.5-.3 33.2-1.3c2-.7 5.4-2.7 7.6-4.5 2.2-1.7 5.1-5.3 6.4-7.9 1.7-3.5 2.3-6.4 2.3-11.2s-.6-7.7-2.3-11.2c-1.3-2.6-4.2-6.2-6.4-7.9-2.2-1.8-5.6-3.8-7.6-4.5-2.7-1-11.4-1.3-33.2-1.3-22.5 0-30.4.3-33.4 1.4m-27.6 75.6c-2.4 1.1-5.9 3.6-7.7 5.5-1.7 1.9-3.9 5.5-4.9 8-1.2 3.2-1.5 6.2-1.2 10.7.3 3.5 1.2 7.6 2.1 9.3.8 1.6 8.7 10.1 17.4 18.9 9.6 9.6 17.4 16.5 19.8 17.6 2.5 1.2 6.3 1.9 10 1.9 3.9 0 7.6-.8 10.4-2 2.4-1.1 5.7-3.4 7.4-5.1 1.6-1.7 3.7-4.9 4.8-7.2 1.1-2.6 1.9-6.5 1.9-10.3 0-4.4-.6-7.3-2.5-11-1.7-3.4-7.2-9.7-17.4-19.7-9.5-9.4-16.4-15.4-19.2-16.7-2.8-1.2-6.6-2-10.4-2-3.9 0-7.6.8-10.5 2.1"/></svg>